<mxfile host="app.diagrams.net" agent="Mozilla/5.0 (Windows NT 10.0; Win64; x64) AppleWebKit/537.36 (KHTML, like Gecko) Chrome/138.0.0.0 Safari/537.36 Edg/138.0.0.0" version="27.2.0">
  <diagram name="Page-1" id="CB-BS1oHSRM4m6wR0Piw">
    <mxGraphModel dx="1861" dy="618" grid="1" gridSize="10" guides="1" tooltips="1" connect="1" arrows="1" fold="1" page="1" pageScale="1" pageWidth="827" pageHeight="1169" math="0" shadow="0">
      <root>
        <mxCell id="0" />
        <mxCell id="1" parent="0" />
        <mxCell id="uAQSI9w36KNmP1KzL0dp-1" value="" style="rounded=0;whiteSpace=wrap;html=1;" vertex="1" parent="1">
          <mxGeometry x="560" y="560" width="120" height="60" as="geometry" />
        </mxCell>
        <mxCell id="uAQSI9w36KNmP1KzL0dp-2" value="CPU" style="text;html=1;align=center;verticalAlign=middle;whiteSpace=wrap;rounded=0;strokeColor=default;" vertex="1" parent="1">
          <mxGeometry x="560" y="560" width="120" height="30" as="geometry" />
        </mxCell>
        <mxCell id="uAQSI9w36KNmP1KzL0dp-3" value="Memoria" style="text;html=1;align=center;verticalAlign=middle;whiteSpace=wrap;rounded=0;strokeColor=default;" vertex="1" parent="1">
          <mxGeometry x="560" y="590" width="120" height="30" as="geometry" />
        </mxCell>
        <mxCell id="uAQSI9w36KNmP1KzL0dp-7" value="&lt;b&gt;&lt;font style=&quot;font-size: 14px;&quot;&gt;Machine&lt;/font&gt;&lt;/b&gt;" style="text;html=1;align=center;verticalAlign=middle;whiteSpace=wrap;rounded=0;strokeColor=default;" vertex="1" parent="1">
          <mxGeometry x="560" y="530" width="120" height="30" as="geometry" />
        </mxCell>
        <mxCell id="uAQSI9w36KNmP1KzL0dp-27" style="edgeStyle=orthogonalEdgeStyle;rounded=0;orthogonalLoop=1;jettySize=auto;html=1;exitX=1;exitY=0.5;exitDx=0;exitDy=0;entryX=0;entryY=0.5;entryDx=0;entryDy=0;" edge="1" parent="1" source="uAQSI9w36KNmP1KzL0dp-9" target="uAQSI9w36KNmP1KzL0dp-26">
          <mxGeometry relative="1" as="geometry" />
        </mxCell>
        <mxCell id="uAQSI9w36KNmP1KzL0dp-9" value="" style="rounded=0;whiteSpace=wrap;html=1;" vertex="1" parent="1">
          <mxGeometry x="180" y="150" width="120" height="70" as="geometry" />
        </mxCell>
        <mxCell id="uAQSI9w36KNmP1KzL0dp-12" value="&lt;b&gt;&lt;font style=&quot;font-size: 14px;&quot;&gt;~Tokenizer~ Lexer&lt;/font&gt;&lt;/b&gt;" style="text;html=1;align=center;verticalAlign=middle;whiteSpace=wrap;rounded=0;strokeColor=none;" vertex="1" parent="1">
          <mxGeometry x="180" y="170" width="120" height="30" as="geometry" />
        </mxCell>
        <mxCell id="uAQSI9w36KNmP1KzL0dp-30" style="edgeStyle=orthogonalEdgeStyle;rounded=0;orthogonalLoop=1;jettySize=auto;html=1;exitX=1;exitY=0.5;exitDx=0;exitDy=0;entryX=0;entryY=0.5;entryDx=0;entryDy=0;" edge="1" parent="1" source="uAQSI9w36KNmP1KzL0dp-13" target="uAQSI9w36KNmP1KzL0dp-29">
          <mxGeometry relative="1" as="geometry" />
        </mxCell>
        <mxCell id="uAQSI9w36KNmP1KzL0dp-13" value="" style="rounded=0;whiteSpace=wrap;html=1;" vertex="1" parent="1">
          <mxGeometry x="480" y="150" width="120" height="70" as="geometry" />
        </mxCell>
        <mxCell id="uAQSI9w36KNmP1KzL0dp-14" value="&lt;b&gt;&lt;font style=&quot;font-size: 14px;&quot;&gt;~Lexer~ Tokenizer&lt;/font&gt;&lt;/b&gt;" style="text;html=1;align=center;verticalAlign=middle;whiteSpace=wrap;rounded=0;strokeColor=none;" vertex="1" parent="1">
          <mxGeometry x="480" y="170" width="120" height="30" as="geometry" />
        </mxCell>
        <mxCell id="uAQSI9w36KNmP1KzL0dp-32" style="edgeStyle=orthogonalEdgeStyle;rounded=0;orthogonalLoop=1;jettySize=auto;html=1;exitX=0.5;exitY=1;exitDx=0;exitDy=0;entryX=0.5;entryY=0;entryDx=0;entryDy=0;" edge="1" parent="1" source="uAQSI9w36KNmP1KzL0dp-15" target="uAQSI9w36KNmP1KzL0dp-33">
          <mxGeometry relative="1" as="geometry">
            <mxPoint x="840" y="250" as="targetPoint" />
          </mxGeometry>
        </mxCell>
        <mxCell id="uAQSI9w36KNmP1KzL0dp-15" value="" style="rounded=0;whiteSpace=wrap;html=1;" vertex="1" parent="1">
          <mxGeometry x="780" y="150" width="120" height="70" as="geometry" />
        </mxCell>
        <mxCell id="uAQSI9w36KNmP1KzL0dp-16" value="&lt;b&gt;&lt;font style=&quot;font-size: 14px;&quot;&gt;Parser&lt;/font&gt;&lt;/b&gt;" style="text;html=1;align=center;verticalAlign=middle;whiteSpace=wrap;rounded=0;strokeColor=none;" vertex="1" parent="1">
          <mxGeometry x="780" y="170" width="120" height="30" as="geometry" />
        </mxCell>
        <mxCell id="uAQSI9w36KNmP1KzL0dp-24" style="edgeStyle=orthogonalEdgeStyle;rounded=0;orthogonalLoop=1;jettySize=auto;html=1;exitX=1;exitY=0.5;exitDx=0;exitDy=0;entryX=0;entryY=0.5;entryDx=0;entryDy=0;" edge="1" parent="1" source="uAQSI9w36KNmP1KzL0dp-19" target="uAQSI9w36KNmP1KzL0dp-9">
          <mxGeometry relative="1" as="geometry">
            <mxPoint x="70" y="185" as="sourcePoint" />
          </mxGeometry>
        </mxCell>
        <mxCell id="uAQSI9w36KNmP1KzL0dp-19" value="addi x3, x2, x1" style="text;html=1;align=center;verticalAlign=middle;whiteSpace=wrap;rounded=0;strokeColor=default;dashed=1;" vertex="1" parent="1">
          <mxGeometry x="30" y="170" width="120" height="30" as="geometry" />
        </mxCell>
        <mxCell id="uAQSI9w36KNmP1KzL0dp-28" style="edgeStyle=orthogonalEdgeStyle;rounded=0;orthogonalLoop=1;jettySize=auto;html=1;exitX=1;exitY=0.5;exitDx=0;exitDy=0;entryX=0;entryY=0.5;entryDx=0;entryDy=0;" edge="1" parent="1" source="uAQSI9w36KNmP1KzL0dp-26" target="uAQSI9w36KNmP1KzL0dp-13">
          <mxGeometry relative="1" as="geometry" />
        </mxCell>
        <mxCell id="uAQSI9w36KNmP1KzL0dp-26" value="[&quot;addi&quot;, &quot;,&quot;, &quot;x3&quot;, &quot;,&quot;,&amp;nbsp; &quot;x2&quot;, &quot;,&quot;,&amp;nbsp; &quot;x1&quot;]" style="text;html=1;align=center;verticalAlign=middle;whiteSpace=wrap;rounded=0;strokeColor=default;dashed=1;" vertex="1" parent="1">
          <mxGeometry x="330" y="155" width="120" height="60" as="geometry" />
        </mxCell>
        <mxCell id="uAQSI9w36KNmP1KzL0dp-31" style="edgeStyle=orthogonalEdgeStyle;rounded=0;orthogonalLoop=1;jettySize=auto;html=1;exitX=1;exitY=0.5;exitDx=0;exitDy=0;entryX=0;entryY=0.5;entryDx=0;entryDy=0;" edge="1" parent="1" source="uAQSI9w36KNmP1KzL0dp-29" target="uAQSI9w36KNmP1KzL0dp-15">
          <mxGeometry relative="1" as="geometry" />
        </mxCell>
        <mxCell id="uAQSI9w36KNmP1KzL0dp-29" value="ADDI X3 X2 X1 ..." style="text;html=1;align=center;verticalAlign=middle;whiteSpace=wrap;rounded=0;strokeColor=default;dashed=1;" vertex="1" parent="1">
          <mxGeometry x="630" y="155" width="120" height="60" as="geometry" />
        </mxCell>
        <mxCell id="uAQSI9w36KNmP1KzL0dp-42" style="edgeStyle=orthogonalEdgeStyle;rounded=0;orthogonalLoop=1;jettySize=auto;html=1;entryX=0.5;entryY=0;entryDx=0;entryDy=0;" edge="1" parent="1" source="uAQSI9w36KNmP1KzL0dp-33" target="uAQSI9w36KNmP1KzL0dp-45">
          <mxGeometry relative="1" as="geometry">
            <mxPoint x="840" y="400" as="targetPoint" />
          </mxGeometry>
        </mxCell>
        <mxCell id="uAQSI9w36KNmP1KzL0dp-33" value="[ADDI X3 X2 X1, ...]" style="text;html=1;align=center;verticalAlign=middle;whiteSpace=wrap;rounded=0;strokeColor=default;dashed=1;" vertex="1" parent="1">
          <mxGeometry x="780" y="260" width="120" height="60" as="geometry" />
        </mxCell>
        <mxCell id="uAQSI9w36KNmP1KzL0dp-34" value="" style="rounded=0;whiteSpace=wrap;html=1;" vertex="1" parent="1">
          <mxGeometry x="780" y="540" width="120" height="70" as="geometry" />
        </mxCell>
        <mxCell id="uAQSI9w36KNmP1KzL0dp-51" style="edgeStyle=orthogonalEdgeStyle;rounded=0;orthogonalLoop=1;jettySize=auto;html=1;exitX=0;exitY=0.5;exitDx=0;exitDy=0;entryX=1;entryY=0.5;entryDx=0;entryDy=0;" edge="1" parent="1" source="uAQSI9w36KNmP1KzL0dp-35" target="uAQSI9w36KNmP1KzL0dp-3">
          <mxGeometry relative="1" as="geometry">
            <Array as="points" />
          </mxGeometry>
        </mxCell>
        <mxCell id="uAQSI9w36KNmP1KzL0dp-35" value="&lt;b&gt;&lt;font style=&quot;font-size: 14px;&quot;&gt;Loader&lt;/font&gt;&lt;/b&gt;" style="text;html=1;align=center;verticalAlign=middle;whiteSpace=wrap;rounded=0;strokeColor=none;" vertex="1" parent="1">
          <mxGeometry x="780" y="560" width="120" height="30" as="geometry" />
        </mxCell>
        <mxCell id="uAQSI9w36KNmP1KzL0dp-43" value="" style="rounded=1;whiteSpace=wrap;html=1;fillColor=none;" vertex="1" parent="1">
          <mxGeometry x="-20" y="810" width="980" height="540" as="geometry" />
        </mxCell>
        <mxCell id="uAQSI9w36KNmP1KzL0dp-44" value="&lt;h1 style=&quot;margin-top: 0px;&quot;&gt;&lt;span style=&quot;background-color: transparent; color: light-dark(rgb(0, 0, 0), rgb(255, 255, 255));&quot;&gt;Meu simulador&lt;/span&gt;&lt;/h1&gt;" style="text;html=1;whiteSpace=wrap;overflow=hidden;rounded=0;" vertex="1" parent="1">
          <mxGeometry x="20" y="30" width="180" height="40" as="geometry" />
        </mxCell>
        <mxCell id="uAQSI9w36KNmP1KzL0dp-47" style="edgeStyle=orthogonalEdgeStyle;rounded=0;orthogonalLoop=1;jettySize=auto;html=1;entryX=0.5;entryY=0;entryDx=0;entryDy=0;exitX=0.5;exitY=1;exitDx=0;exitDy=0;" edge="1" parent="1" source="uAQSI9w36KNmP1KzL0dp-48" target="uAQSI9w36KNmP1KzL0dp-34">
          <mxGeometry relative="1" as="geometry">
            <mxPoint x="840" y="500" as="sourcePoint" />
          </mxGeometry>
        </mxCell>
        <mxCell id="uAQSI9w36KNmP1KzL0dp-45" value="" style="rounded=0;whiteSpace=wrap;html=1;" vertex="1" parent="1">
          <mxGeometry x="780" y="360" width="120" height="70" as="geometry" />
        </mxCell>
        <mxCell id="uAQSI9w36KNmP1KzL0dp-49" style="edgeStyle=orthogonalEdgeStyle;rounded=0;orthogonalLoop=1;jettySize=auto;html=1;entryX=0.5;entryY=0;entryDx=0;entryDy=0;" edge="1" parent="1" target="uAQSI9w36KNmP1KzL0dp-48">
          <mxGeometry relative="1" as="geometry">
            <mxPoint x="840" y="430" as="sourcePoint" />
          </mxGeometry>
        </mxCell>
        <mxCell id="uAQSI9w36KNmP1KzL0dp-46" value="&lt;b&gt;&lt;font style=&quot;font-size: 14px;&quot;&gt;Montador&lt;/font&gt;&lt;/b&gt;" style="text;html=1;align=center;verticalAlign=middle;whiteSpace=wrap;rounded=0;strokeColor=none;" vertex="1" parent="1">
          <mxGeometry x="780" y="380" width="120" height="30" as="geometry" />
        </mxCell>
        <mxCell id="uAQSI9w36KNmP1KzL0dp-48" value="0000010101... (x32)" style="text;html=1;align=center;verticalAlign=middle;whiteSpace=wrap;rounded=0;strokeColor=default;dashed=1;" vertex="1" parent="1">
          <mxGeometry x="780" y="460" width="120" height="60" as="geometry" />
        </mxCell>
        <mxCell id="uAQSI9w36KNmP1KzL0dp-52" value="" style="rounded=0;whiteSpace=wrap;html=1;" vertex="1" parent="1">
          <mxGeometry x="370" y="540" width="120" height="70" as="geometry" />
        </mxCell>
        <mxCell id="uAQSI9w36KNmP1KzL0dp-55" style="edgeStyle=orthogonalEdgeStyle;rounded=0;orthogonalLoop=1;jettySize=auto;html=1;exitX=1;exitY=0.5;exitDx=0;exitDy=0;entryX=0;entryY=0.5;entryDx=0;entryDy=0;startArrow=classic;startFill=1;" edge="1" parent="1" source="uAQSI9w36KNmP1KzL0dp-53" target="uAQSI9w36KNmP1KzL0dp-2">
          <mxGeometry relative="1" as="geometry" />
        </mxCell>
        <mxCell id="uAQSI9w36KNmP1KzL0dp-53" value="&lt;b&gt;&lt;font style=&quot;font-size: 14px;&quot;&gt;Executor&lt;/font&gt;&lt;/b&gt;" style="text;html=1;align=center;verticalAlign=middle;whiteSpace=wrap;rounded=0;strokeColor=none;" vertex="1" parent="1">
          <mxGeometry x="370" y="560" width="120" height="30" as="geometry" />
        </mxCell>
      </root>
    </mxGraphModel>
  </diagram>
</mxfile>
